<?xml version="1.0" encoding="UTF-8" standalone="no"?>
<!DOCTYPE svg PUBLIC "-//W3C//DTD SVG 1.1//EN"
 "http://www.w3.org/Graphics/SVG/1.1/DTD/svg11.dtd">
<!-- Generated by graphviz version 2.43.0 (0)
 -->
<!-- Title: callgraph Pages: 1 -->
<svg width="416pt" height="368pt"
 viewBox="0.00 0.00 415.77 368.00" xmlns="http://www.w3.org/2000/svg" xmlns:xlink="http://www.w3.org/1999/xlink">
<g id="graph0" class="graph" transform="scale(1 1) rotate(0) translate(4 364)">
<title>callgraph</title>
<polygon fill="white" stroke="transparent" points="-4,4 -4,-364 411.77,-364 411.77,4 -4,4"/>
<!-- load_elf_binary -->
<g id="node1" class="node">
<title>load_elf_binary</title>
<ellipse fill="none" stroke="black" cx="80.59" cy="-99" rx="80.69" ry="18"/>
<text text-anchor="middle" x="80.59" y="-95.3" font-family="Times,serif" font-size="14.00">load_elf_binary</text>
</g>
<!-- load_elf_phdrs -->
<g id="node2" class="node">
<title>load_elf_phdrs</title>
<ellipse fill="none" stroke="black" cx="302.48" cy="-180" rx="77.19" ry="18"/>
<text text-anchor="middle" x="302.48" y="-176.3" font-family="Times,serif" font-size="14.00">load_elf_phdrs</text>
</g>
<!-- load_elf_binary&#45;&gt;load_elf_phdrs -->
<g id="edge1" class="edge">
<title>load_elf_binary&#45;&gt;load_elf_phdrs</title>
<path fill="none" stroke="black" stroke-dasharray="1,5" d="M112.82,-115.5C135.71,-127.12 167.8,-142.43 197.19,-153 209.6,-157.46 223.09,-161.52 236.12,-165.05"/>
<polygon fill="black" stroke="black" points="235.4,-168.48 245.96,-167.64 237.19,-161.71 235.4,-168.48"/>
</g>
<!-- set_brk -->
<g id="node3" class="node">
<title>set_brk</title>
<ellipse fill="none" stroke="black" cx="302.48" cy="-126" rx="44.69" ry="18"/>
<text text-anchor="middle" x="302.48" y="-122.3" font-family="Times,serif" font-size="14.00">set_brk</text>
</g>
<!-- load_elf_binary&#45;&gt;set_brk -->
<g id="edge2" class="edge">
<title>load_elf_binary&#45;&gt;set_brk</title>
<path fill="none" stroke="black" stroke-dasharray="1,5" d="M151.47,-107.58C183.19,-111.48 220.07,-116 249.32,-119.6"/>
<polygon fill="black" stroke="black" points="248.98,-123.08 259.33,-120.82 249.83,-116.13 248.98,-123.08"/>
</g>
<!-- parse_elf_properties -->
<g id="node4" class="node">
<title>parse_elf_properties</title>
<ellipse fill="none" stroke="black" cx="302.48" cy="-72" rx="105.08" ry="18"/>
<text text-anchor="middle" x="302.48" y="-68.3" font-family="Times,serif" font-size="14.00">parse_elf_properties</text>
</g>
<!-- load_elf_binary&#45;&gt;parse_elf_properties -->
<g id="edge3" class="edge">
<title>load_elf_binary&#45;&gt;parse_elf_properties</title>
<path fill="none" stroke="black" stroke-dasharray="1,5" d="M151.47,-90.42C168.87,-88.28 187.82,-85.96 206.21,-83.7"/>
<polygon fill="black" stroke="black" points="206.86,-87.14 216.36,-82.45 206.01,-80.2 206.86,-87.14"/>
</g>
<!-- elf_map -->
<g id="node5" class="node">
<title>elf_map</title>
<ellipse fill="none" stroke="black" cx="302.48" cy="-18" rx="46.59" ry="18"/>
<text text-anchor="middle" x="302.48" y="-14.3" font-family="Times,serif" font-size="14.00">elf_map</text>
</g>
<!-- load_elf_binary&#45;&gt;elf_map -->
<g id="edge4" class="edge">
<title>load_elf_binary&#45;&gt;elf_map</title>
<path fill="none" stroke="black" stroke-dasharray="1,5" d="M112.82,-82.5C135.71,-70.88 167.8,-55.57 197.19,-45 214.4,-38.81 233.68,-33.41 250.94,-29.1"/>
<polygon fill="black" stroke="black" points="251.95,-32.45 260.84,-26.69 250.29,-25.65 251.95,-32.45"/>
</g>
<!-- elf_core_dump -->
<g id="node6" class="node">
<title>elf_core_dump</title>
<ellipse fill="none" stroke="black" cx="80.59" cy="-234" rx="77.19" ry="18"/>
<text text-anchor="middle" x="80.59" y="-230.3" font-family="Times,serif" font-size="14.00">elf_core_dump</text>
</g>
<!-- writenote -->
<g id="node7" class="node">
<title>writenote</title>
<ellipse fill="none" stroke="black" cx="302.48" cy="-234" rx="55.79" ry="18"/>
<text text-anchor="middle" x="302.48" y="-230.3" font-family="Times,serif" font-size="14.00">writenote</text>
</g>
<!-- elf_core_dump&#45;&gt;writenote -->
<g id="edge5" class="edge">
<title>elf_core_dump&#45;&gt;writenote</title>
<path fill="none" stroke="black" stroke-dasharray="1,5" d="M158.19,-234C183.57,-234 211.56,-234 236.02,-234"/>
<polygon fill="black" stroke="black" points="236.27,-237.5 246.27,-234 236.27,-230.5 236.27,-237.5"/>
</g>
<!-- init_elf_binfmt -->
<g id="node8" class="node">
<title>init_elf_binfmt</title>
<ellipse fill="none" stroke="black" cx="80.59" cy="-288" rx="77.19" ry="18"/>
<text text-anchor="middle" x="80.59" y="-284.3" font-family="Times,serif" font-size="14.00">init_elf_binfmt</text>
</g>
<!-- exit_elf_binfmt -->
<g id="node9" class="node">
<title>exit_elf_binfmt</title>
<ellipse fill="none" stroke="black" cx="80.59" cy="-342" rx="79.09" ry="18"/>
<text text-anchor="middle" x="80.59" y="-338.3" font-family="Times,serif" font-size="14.00">exit_elf_binfmt</text>
</g>
</g>
</svg>
